<?xml version="1.0" encoding="UTF-8" standalone="no"?>
<!-- Created with Inkscape (http://www.inkscape.org/) -->

<svg
   version="1.1"
   id="svg2"
   width="570.59961"
   height="146.27344"
   viewBox="0 0 570.5996 146.27344"
   sodipodi:docname="coda_preferencial_negativa.svg"
   inkscape:export-filename="coda_preferencial_negativa.svg"
   inkscape:export-xdpi="96"
   inkscape:export-ydpi="96"
   inkscape:version="1.3.2 (091e20e, 2023-11-25, custom)"
   xmlns:inkscape="http://www.inkscape.org/namespaces/inkscape"
   xmlns:sodipodi="http://sodipodi.sourceforge.net/DTD/sodipodi-0.dtd"
   xmlns:xlink="http://www.w3.org/1999/xlink"
   xmlns="http://www.w3.org/2000/svg"
   xmlns:svg="http://www.w3.org/2000/svg">
  <defs
     id="defs6">
    <linearGradient
       id="linearGradient29"
       inkscape:collect="always">
      <stop
         style="stop-color:#ffb233;stop-opacity:1;"
         offset="0"
         id="stop29" />
      <stop
         style="stop-color:#ff4d00;stop-opacity:1;"
         offset="1"
         id="stop30" />
    </linearGradient>
    <linearGradient
       inkscape:collect="always"
       xlink:href="#linearGradient29"
       id="linearGradient30"
       x1="-34.938999"
       y1="0.92750001"
       x2="0.50400001"
       y2="0.92750001"
       gradientUnits="userSpaceOnUse" />
    <linearGradient
       inkscape:collect="always"
       xlink:href="#linearGradient29"
       id="linearGradient2"
       gradientUnits="userSpaceOnUse"
       x1="-34.938999"
       y1="0.92750001"
       x2="0.50400001"
       y2="0.92750001" />
  </defs>
  <sodipodi:namedview
     id="namedview4"
     pagecolor="#ffffff"
     bordercolor="#000000"
     borderopacity="0.25"
     inkscape:showpageshadow="2"
     inkscape:pageopacity="0.0"
     inkscape:pagecheckerboard="0"
     inkscape:deskcolor="#d1d1d1"
     inkscape:zoom="1.0048819"
     inkscape:cx="561.26001"
     inkscape:cy="397.0616"
     inkscape:window-width="1920"
     inkscape:window-height="991"
     inkscape:window-x="-9"
     inkscape:window-y="108"
     inkscape:window-maximized="1"
     inkscape:current-layer="g8" />
  <g
     id="g8"
     inkscape:groupmode="layer"
     inkscape:label="coda_duas_cores_positiva"
     transform="matrix(1.3333333,0,0,-1.3333333,-276.51563,467.43128)">
    <g
       id="g18"
       transform="translate(372.1602,295.0791)"
       style="fill:url(#linearGradient30)"
       inkscape:export-filename="coda_preferencial_negativa.png"
       inkscape:export-xdpi="300"
       inkscape:export-ydpi="300">
      <path
         d="m 0,0 c 0.271,0.15 0.504,0.32 0.504,0.631 0,0.299 -0.221,0.49 -0.481,0.623 l -30.16,16.533 c -3.047,-4.848 -4.802,-10.633 -4.802,-17.16 0,-6.26 1.605,-11.844 4.416,-16.559 z"
         style="fill:url(#linearGradient2);fill-opacity:1;fill-rule:nonzero;stroke:none"
         id="path20" />
    </g>
    <g
       id="g22"
       transform="translate(323.5391,320.9189)"
       style="fill:#a6a6a6;fill-opacity:1">
      <path
         d="m 228.71873,-25.212621 -19.77686,-53.935548 h 23.36426 l 6.89209,18.465821 h 42.34131 l 6.89209,-18.465821 h 23.36572 l -19.77685,53.935548 h -23.51807 l 5.70117,-15.508301 -27.6416,-0.0249 5.69238,15.533203 z"
         style="fill:#a6a6a6;fill-opacity:1"
         id="path26" />
      <path
         d="m 118.78952,-25.212621 v -53.91211 h 33.14356 c 33.29497,0 56.76123,22.038213 56.76123,53.909181 0,9.94e-4 0,0.0019 0,0.0029 h -22.98486 c 0,-9.93e-4 0,-0.0019 0,-0.0029 0,-20.13698 -10.94621,-34.41211 -34.88819,-34.41211 h -9.83496 v 34.415039 z"
         style="fill:#a6a6a6;fill-opacity:1"
         id="path21" />
      <path
         d="m 83.479465,-25.212621 c 0,-19.31998 -15.114388,-32.402344 -34.901368,-32.402344 -13.378987,0 -24.599476,6.00176 -30.48047,15.84375 L -0.17776379,-50.060766 C 8.4882275,-67.927748 26.469119,-80.050513 48.578097,-80.050513 c 31.316968,0 54.373533,24.294923 54.373533,54.837892 z"
         style="fill:#a6a6a6;fill-opacity:1"
         id="path18" />
      <path
         d="m -93.479524,-25.212621 h -22.668456 c 0.0482,-31.587184 24.426832,-54.837892 55.085449,-54.837892 20.617979,0 35.409253,9.126043 44.698243,23.603028 l -17.15625,11.812501 c -5.982994,-9.128991 -13.692007,-15.739747 -27.541993,-15.739747 -19.328712,0 -32.376227,15.220151 -32.416993,35.16211 z"
         style="fill:#a6a6a6;fill-opacity:1"
         id="path16" />
    </g>
    <g
       id="use1"
       transform="translate(323.5391,320.9189)"
       style="fill:#d9d9d9;fill-opacity:1">
      <path
         d="m 228.71873,-25.212621 h 23.53564 l 8.11231,22.1352549 8.13574,-22.1352549 h 23.51807 l -19.77393,53.928224 h -0.11279 -23.52979 -0.11133 z"
         style="fill:#d9d9d9;fill-opacity:1"
         id="path11" />
      <path
         d="M 118.78952,-25.212621 H 140.9863 V 9.1877709 h 9.83496 c 23.9408,0 34.88711,-14.2689844 34.88819,-34.4003919 h 22.98486 c -0.001,31.8653615 -23.6283,53.901857 -56.76123,53.901857 h -33.14356 z"
         style="fill:#d9d9d9;fill-opacity:1"
         id="path7" />
      <path
         d="m 83.479465,-25.212621 h 19.472165 c 0,30.5369699 -23.056565,54.840822 -54.373533,54.840822 -21.956978,0 -39.8466234,-11.967948 -48.57861469279,-29.62793032077 L 18.484346,-8.0534405 C 24.45534,1.4295501 35.47311,7.189724 48.578097,7.189724 c 19.78698,0 34.901368,-13.0783639 34.901368,-32.402345 z"
         style="fill:#d9d9d9;fill-opacity:1"
         id="path5" />
      <path
         d="m -61.062531,29.654568 c -30.688969,0 -55.089849,-23.143935 -55.089849,-54.774903 0,-0.03129 0.004,-0.06101 0.004,-0.09229 h 22.668456 c -6.4e-5,0.03123 -0.0044,0.06103 -0.0044,0.09229 0,19.9819796 13.062406,34.9423833 32.421387,34.9423833 12.275988,0 20.931361,-5.8277039 25.964356,-14.0126957 L -18.249542,7.7727318 C -27.856532,22.718717 -41.70855,29.654568 -61.062531,29.654568 Z"
         style="fill:#d9d9d9;fill-opacity:1"
         id="path3" />
    </g>
  </g>
</svg>
