<?xml version="1.0" encoding="UTF-8" standalone="no"?>
<!-- Created with Inkscape (http://www.inkscape.org/) -->

<svg
   version="1.1"
   id="svg2"
   width="1122.52"
   height="793.70667"
   viewBox="0 0 1122.52 793.70667"
   sodipodi:docname="coda_pb.ai"
   xmlns:inkscape="http://www.inkscape.org/namespaces/inkscape"
   xmlns:sodipodi="http://sodipodi.sourceforge.net/DTD/sodipodi-0.dtd"
   xmlns="http://www.w3.org/2000/svg"
   xmlns:svg="http://www.w3.org/2000/svg">
  <defs
     id="defs6">
    <clipPath
       clipPathUnits="userSpaceOnUse"
       id="clipPath18">
      <path
         d="M 0,595.28 H 841.89 V 0 H 0 Z"
         id="path16" />
    </clipPath>
  </defs>
  <sodipodi:namedview
     id="namedview4"
     pagecolor="#ffffff"
     bordercolor="#000000"
     borderopacity="0.25"
     inkscape:showpageshadow="2"
     inkscape:pageopacity="0.0"
     inkscape:pagecheckerboard="0"
     inkscape:deskcolor="#d1d1d1" />
  <g
     id="g8"
     inkscape:groupmode="layer"
     inkscape:label="coda_pb"
     transform="matrix(1.3333333,0,0,-1.3333333,0,793.70667)">
    <path
       d="M 0,0 H 841.89 V 595.281 H 0 Z"
       style="fill:#231f20;fill-opacity:1;fill-rule:nonzero;stroke:none"
       id="path10" />
    <g
       id="g12">
      <g
         id="g14"
         clip-path="url(#clipPath18)">
        <g
           id="g20"
           transform="translate(206.8193,296.3125)">
          <path
             d="m 0,0 c 0,31.633 24.4,54.777 55.09,54.777 19.353,0 33.205,-6.935 42.812,-21.881 L 81.055,20.932 C 76.021,29.117 67.365,34.945 55.09,34.945 35.73,34.945 22.668,19.984 22.668,0 c 0,-19.986 13.062,-35.254 32.422,-35.254 13.849,0 21.558,6.611 27.541,15.74 L 99.787,-31.326 C 90.498,-45.801 75.707,-54.928 55.09,-54.928 24.4,-54.928 0,-31.635 0,0"
             style="fill:#ffffff;fill-opacity:1;fill-rule:nonzero;stroke:none"
             id="path22" />
        </g>
        <g
           id="g24"
           transform="translate(473.792,261.8066)">
          <path
             d="M 0,0 C 23.941,0 34.889,14.277 34.889,34.412 34.889,54.547 23.941,68.816 0,68.816 H -9.834 V 0 Z m -32.029,88.318 h 33.14 c 33.135,0 56.764,-22.037 56.764,-53.906 0,-31.869 -23.469,-53.91 -56.764,-53.91 h -33.14 z"
             style="fill:#ffffff;fill-opacity:1;fill-rule:nonzero;stroke:none"
             id="path26" />
        </g>
        <g
           id="g28"
           transform="translate(597.1748,280.7148)">
          <path
             d="m 0,0 -27.641,-0.025 13.803,37.668 z M -35.004,-19.961 H 7.336 L 14.227,-38.43 H 37.594 L -1.957,69.436 H -2.07 -25.6 -25.711 L -65.26,-38.43 h 23.364 z"
             style="fill:#ffffff;fill-opacity:1;fill-rule:nonzero;stroke:none"
             id="path30" />
        </g>
        <g
           id="g32"
           transform="translate(371.5928,295.5957)">
          <path
             d="m 0,0 c 0.271,0.148 0.504,0.318 0.504,0.629 0,0.301 -0.221,0.492 -0.481,0.623 l -30.16,16.535 c -3.047,-4.848 -4.802,-10.633 -4.802,-17.162 0,-6.258 1.605,-11.842 4.416,-16.559 z"
             style="fill:#ffffff;fill-opacity:1;fill-rule:nonzero;stroke:none"
             id="path34" />
        </g>
        <g
           id="g36"
           transform="translate(322.9717,321.4355)">
          <path
             d="m 0,0 18.484,-8.053 c 5.971,9.483 16.989,15.242 30.094,15.242 19.787,0 34.901,-13.078 34.901,-32.404 0,-19.32 -15.114,-32.4 -34.901,-32.4 -13.379,0 -24.599,6.002 -30.48,15.842 l -18.276,-8.29 c 8.666,-17.867 26.647,-29.988 48.756,-29.988 31.317,0 54.373,24.293 54.373,54.836 0,30.539 -23.056,54.844 -54.373,54.844 C 26.621,29.629 8.732,17.66 0,0"
             style="fill:#ffffff;fill-opacity:1;fill-rule:nonzero;stroke:none"
             id="path38" />
        </g>
        <g
           id="g40"
           transform="translate(221.749,198.0156)">
          <path
             d="M 0,0 V -1.848 H -14.182 V 19.264 H -0.268 V 17.42 H -12.131 V 9.811 H -1.785 V 8.055 H -12.131 V 0 Z"
             style="fill:#ffffff;fill-opacity:1;fill-rule:nonzero;stroke:none"
             id="path42" />
        </g>
        <g
           id="g44"
           transform="translate(225.585,217.2793)">
          <path
             d="M 0,0 6.926,-9.219 13.854,0 h 2.289 l -8.116,-10.701 7.877,-10.41 h -2.287 l -6.691,8.92 -6.688,-8.92 h -2.32 L 5.797,-10.701 -2.32,0 Z"
             style="fill:#ffffff;fill-opacity:1;fill-rule:nonzero;stroke:none"
             id="path46" />
        </g>
        <g
           id="g48"
           transform="translate(253.2041,217.3965)">
          <path
             d="M 0,0 C 3.744,0 6.48,-1.9 7.789,-4.607 L 6.123,-5.619 c -1.338,2.795 -3.953,3.748 -6.242,3.748 -5.055,0 -7.818,-4.518 -7.818,-8.772 0,-4.668 3.417,-8.888 7.908,-8.888 2.377,0 5.172,1.191 6.509,3.924 l 1.725,-0.891 c -1.367,-3.154 -5.113,-4.908 -8.353,-4.908 -5.799,0 -9.872,5.531 -9.872,10.883 C -10.02,-5.439 -6.363,0 0,0"
             style="fill:#ffffff;fill-opacity:1;fill-rule:nonzero;stroke:none"
             id="path50" />
        </g>
        <g
           id="g52"
           transform="translate(279.2178,198.0156)">
          <path
             d="M 0,0 V -1.848 H -14.18 V 19.264 H -0.268 V 17.42 H -12.129 V 9.811 H -1.783 V 8.055 H -12.129 V 0 Z"
             style="fill:#ffffff;fill-opacity:1;fill-rule:nonzero;stroke:none"
             id="path54" />
        </g>
        <g
           id="g56"
           transform="translate(283.2627,196.168)">
          <path
             d="M 0,0 V 21.111 H 2.053 V 1.848 H 14.27 V 0 Z"
             style="fill:#ffffff;fill-opacity:1;fill-rule:nonzero;stroke:none"
             id="path58" />
        </g>
        <g
           id="g60"
           transform="translate(304.4893,220.9062)">
          <path
             d="M 0,0 2.914,2.525 H 4.4 L 7.344,0 6.184,-0.625 3.656,1.248 1.131,-0.625 Z m 10.496,-22.891 v -1.847 H -3.686 V -3.627 H 10.227 V -5.471 H -1.635 V -13.08 H 8.711 v -1.756 H -1.635 v -8.055 z"
             style="fill:#ffffff;fill-opacity:1;fill-rule:nonzero;stroke:none"
             id="path62" />
        </g>
        <g
           id="g64"
           transform="translate(321.0811,213.4141)">
          <path
             d="M 0,0 V -17.246 H -2.053 V 3.865 h 1.606 l 13.972,-17.57 V 3.836 h 2.051 v -21.082 h -1.783 z"
             style="fill:#ffffff;fill-opacity:1;fill-rule:nonzero;stroke:none"
             id="path66" />
        </g>
        <g
           id="g68"
           transform="translate(350.6631,217.3965)">
          <path
             d="M 0,0 C 3.744,0 6.48,-1.9 7.787,-4.607 L 6.123,-5.619 c -1.336,2.795 -3.953,3.748 -6.244,3.748 -5.053,0 -7.818,-4.518 -7.818,-8.772 0,-4.668 3.419,-8.888 7.908,-8.888 2.379,0 5.174,1.191 6.511,3.924 l 1.723,-0.891 c -1.365,-3.154 -5.113,-4.908 -8.351,-4.908 -5.799,0 -9.872,5.531 -9.872,10.883 C -10.02,-5.439 -6.365,0 0,0"
             style="fill:#ffffff;fill-opacity:1;fill-rule:nonzero;stroke:none"
             id="path70" />
        </g>
        <path
           d="m 362.495,217.25 h 2.053 v -21.082 h -2.053 z"
           style="fill:#ffffff;fill-opacity:1;fill-rule:nonzero;stroke:none"
           id="path72" />
        <g
           id="g74"
           transform="translate(377.3604,214.8418)">
          <path
             d="m 0,0 -4.34,-10.436 h 8.563 z m -9.691,-18.674 8.83,21.112 h 1.693 l 8.83,-21.112 H 7.434 l -2.737,6.604 h -9.484 l -2.705,-6.604 z"
             style="fill:#ffffff;fill-opacity:1;fill-rule:nonzero;stroke:none"
             id="path76" />
        </g>
        <g
           id="g78"
           transform="translate(410.9561,198.0156)">
          <path
             d="M 0,0 V -1.848 H -14.182 V 19.264 H -0.268 V 17.42 H -12.129 V 9.811 H -1.783 V 8.055 H -12.129 V 0 Z"
             style="fill:#ffffff;fill-opacity:1;fill-rule:nonzero;stroke:none"
             id="path80" />
        </g>
        <g
           id="g82"
           transform="translate(433.7002,196.168)">
          <path
             d="M 0,0 V 17.336 L -7.699,3.928 H -8.92 l -7.73,13.408 V 0 h -2.049 v 21.111 h 2.109 l 8.268,-14.449 8.263,14.449 h 2.11 L 2.051,0 Z"
             style="fill:#ffffff;fill-opacity:1;fill-rule:nonzero;stroke:none"
             id="path84" />
        </g>
        <g
           id="g86"
           transform="translate(455.2549,214.8418)">
          <path
             d="m 0,0 -4.34,-10.436 h 8.563 z m -9.689,-18.674 8.832,21.112 h 1.691 l 8.83,-21.112 H 7.436 l -2.737,6.604 h -9.484 l -2.705,-6.604 z"
             style="fill:#ffffff;fill-opacity:1;fill-rule:nonzero;stroke:none"
             id="path88" />
        </g>
        <g
           id="g90"
           transform="translate(482.4912,206.6367)">
          <path
             d="M 0,0 V 10.643 H 2.08 V 0 c 0,-5.68 -2.406,-10.615 -8.889,-10.615 -6.718,0 -8.89,5.232 -8.89,10.615 v 10.643 h 2.053 V 0 c 0,-4.43 1.574,-8.742 6.808,-8.742 C -1.488,-8.742 0,-4.312 0,0"
             style="fill:#ffffff;fill-opacity:1;fill-rule:nonzero;stroke:none"
             id="path92" />
        </g>
        <g
           id="g94"
           transform="translate(504.5791,215.4355)">
          <path
             d="M 0,0 H -7.521 V -19.268 H -9.602 V 0 h -7.521 V 1.844 H 0 Z"
             style="fill:#ffffff;fill-opacity:1;fill-rule:nonzero;stroke:none"
             id="path96" />
        </g>
        <g
           id="g98"
           transform="translate(515.4053,197.8945)">
          <path
             d="m 0,0 c 4.781,0 7.816,4.49 7.816,8.83 0,4.58 -3.24,8.801 -7.816,8.801 -4.787,0 -7.822,-4.432 -7.822,-8.801 C -7.822,4.25 -4.641,0 0,0 m -9.902,8.83 c 0,5.619 4.281,10.703 9.929,10.703 5.885,0 9.871,-5.441 9.871,-10.732 C 9.898,3.184 5.646,-1.873 0,-1.873 c -5.891,0 -9.902,5.291 -9.902,10.703"
             style="fill:#ffffff;fill-opacity:1;fill-rule:nonzero;stroke:none"
             id="path100" />
        </g>
        <g
           id="g102"
           transform="translate(548.0146,196.168)">
          <path
             d="M 0,0 V 17.336 L -7.699,3.928 h -1.217 l -7.73,13.408 V 0 h -2.051 v 21.111 h 2.111 L -8.32,6.662 -0.057,21.111 h 2.11 V 0 Z"
             style="fill:#ffffff;fill-opacity:1;fill-rule:nonzero;stroke:none"
             id="path104" />
        </g>
        <g
           id="g106"
           transform="translate(562.8818,214.8418)">
          <path
             d="M 0,0 -4.338,-10.436 H 4.221 Z M -9.691,-18.674 -0.859,2.438 H 0.834 L 9.662,-18.674 H 7.434 l -2.735,6.604 h -9.484 l -2.705,-6.604 z"
             style="fill:#ffffff;fill-opacity:1;fill-rule:nonzero;stroke:none"
             id="path108" />
        </g>
        <g
           id="g110"
           transform="translate(581.8525,192.4258)">
          <path
             d="m 0,0 c 0.533,-0.27 1.574,-0.535 2.613,-0.535 1.1,0 1.698,0.297 1.698,1.039 0,0.803 -0.598,1.07 -1.489,1.07 -0.832,0 -1.873,-0.236 -2.375,-0.416 l 1.305,2.438 c -5.5,0.297 -9.336,5.648 -9.336,10.851 0,5.084 3.658,10.524 10.02,10.524 3.744,0 6.48,-1.901 7.789,-4.608 L 8.559,19.352 C 7.223,22.146 4.607,23.1 2.318,23.1 -2.738,23.1 -5.5,18.582 -5.5,14.328 c 0,-4.668 3.416,-8.889 7.906,-8.889 2.379,0 5.172,1.192 6.51,3.924 l 1.725,-0.89 C 9.363,5.529 6.004,3.803 2.912,3.596 L 2.08,2.229 c 0.356,0.15 0.832,0.179 1.129,0.179 1.367,0 2.258,-0.625 2.258,-1.816 0,-1.338 -1.069,-2.08 -3.031,-2.08 -1.129,0 -2.17,0.267 -2.944,0.564 z"
             style="fill:#ffffff;fill-opacity:1;fill-rule:nonzero;stroke:none"
             id="path112" />
        </g>
        <g
           id="g114"
           transform="translate(603.583,214.8418)">
          <path
             d="m 0,0 -4.342,-10.436 h 8.565 z m -1.992,7.045 c -1.311,0 -1.487,-1.277 -1.487,-1.426 h -1.25 c 0,0.414 0.479,2.764 2.708,2.764 1.664,0 2.32,-1.248 3.806,-1.248 1.547,0 1.695,1.338 1.695,1.455 h 1.247 c 0,-0.387 -0.504,-2.735 -2.913,-2.735 -1.783,0 -2.556,1.19 -3.806,1.19 m -7.699,-25.719 8.83,21.112 h 1.693 l 8.83,-21.112 h -2.23 l -2.737,6.604 h -9.482 l -2.705,-6.604 z"
             style="fill:#ffffff;fill-opacity:1;fill-rule:nonzero;stroke:none"
             id="path116" />
        </g>
        <g
           id="g118"
           transform="translate(624.8721,197.8945)">
          <path
             d="m 0,0 c 4.781,0 7.816,4.49 7.816,8.83 0,4.58 -3.238,8.801 -7.816,8.801 -4.787,0 -7.82,-4.432 -7.82,-8.801 C -7.82,4.25 -4.637,0 0,0 m -9.9,8.83 c 0,5.619 4.279,10.703 9.927,10.703 5.889,0 9.869,-5.441 9.869,-10.732 0,-5.617 -4.25,-10.674 -9.896,-10.674 -5.889,0 -9.9,5.291 -9.9,10.703"
             style="fill:#ffffff;fill-opacity:1;fill-rule:nonzero;stroke:none"
             id="path120" />
        </g>
      </g>
    </g>
  </g>
</svg>
