<?xml version="1.0" encoding="UTF-8" standalone="no"?>
<!-- Created with Inkscape (http://www.inkscape.org/) -->

<svg
   version="1.1"
   id="svg2"
   width="1122.52"
   height="793.70667"
   viewBox="0 0 1122.52 793.70667"
   sodipodi:docname="coda_preferencial_negativa.svg"
   inkscape:export-filename="coda_preferencial_negativa.svg"
   inkscape:export-xdpi="96"
   inkscape:export-ydpi="96"
   inkscape:version="1.3.2 (091e20e, 2023-11-25, custom)"
   xmlns:inkscape="http://www.inkscape.org/namespaces/inkscape"
   xmlns:sodipodi="http://sodipodi.sourceforge.net/DTD/sodipodi-0.dtd"
   xmlns:xlink="http://www.w3.org/1999/xlink"
   xmlns="http://www.w3.org/2000/svg"
   xmlns:svg="http://www.w3.org/2000/svg">
  <defs
     id="defs6">
    <linearGradient
       id="linearGradient29"
       inkscape:collect="always">
      <stop
         style="stop-color:#ffb233;stop-opacity:1;"
         offset="0"
         id="stop29" />
      <stop
         style="stop-color:#ff4d00;stop-opacity:1;"
         offset="1"
         id="stop30" />
    </linearGradient>
    <clipPath
       clipPathUnits="userSpaceOnUse"
       id="clipPath16">
      <path
         d="M 0,595.28 H 841.89 V 0 H 0 Z"
         id="path14" />
    </clipPath>
    <linearGradient
       inkscape:collect="always"
       xlink:href="#linearGradient29"
       id="linearGradient30"
       x1="-34.938999"
       y1="0.92750001"
       x2="0.50400001"
       y2="0.92750001"
       gradientUnits="userSpaceOnUse" />
    <linearGradient
       inkscape:collect="always"
       xlink:href="#linearGradient29"
       id="linearGradient2"
       gradientUnits="userSpaceOnUse"
       x1="-34.938999"
       y1="0.92750001"
       x2="0.50400001"
       y2="0.92750001" />
  </defs>
  <sodipodi:namedview
     id="namedview4"
     pagecolor="#ffffff"
     bordercolor="#000000"
     borderopacity="0.25"
     inkscape:showpageshadow="2"
     inkscape:pageopacity="0.0"
     inkscape:pagecheckerboard="0"
     inkscape:deskcolor="#d1d1d1"
     inkscape:zoom="1.0048819"
     inkscape:cx="561.26001"
     inkscape:cy="397.0616"
     inkscape:window-width="1920"
     inkscape:window-height="991"
     inkscape:window-x="-9"
     inkscape:window-y="108"
     inkscape:window-maximized="1"
     inkscape:current-layer="g8" />
  <g
     id="g8"
     inkscape:groupmode="layer"
     inkscape:label="coda_duas_cores_positiva"
     transform="matrix(1.3333333,0,0,-1.3333333,0,793.70667)">
    <g
       id="g10">
      <g
         id="g12"
         clip-path="url(#clipPath16)"
         style="fill:#a6a6a6;fill-opacity:1">
        <g
           id="g26"
           transform="translate(221.7012,198.5674)"
           style="fill:#a6a6a6;fill-opacity:1">
          <path
             d="m 0,0 v -1.846 h -14.182 v 21.11 H -0.268 V 17.422 H -12.131 V 9.813 H -1.785 V 8.055 H -12.131 V 0 Z"
             style="fill:#a6a6a6;fill-opacity:1;fill-rule:nonzero;stroke:none"
             id="path28" />
        </g>
        <g
           id="g30"
           transform="translate(225.5371,217.8311)"
           style="fill:#a6a6a6;fill-opacity:1">
          <path
             d="M 0,0 6.926,-9.217 13.854,0 h 2.289 l -8.116,-10.701 7.877,-10.408 h -2.287 l -6.691,8.92 -6.688,-8.92 h -2.32 L 5.797,-10.701 -2.32,0 Z"
             style="fill:#a6a6a6;fill-opacity:1;fill-rule:nonzero;stroke:none"
             id="path32" />
        </g>
        <g
           id="g34"
           transform="translate(253.1562,217.9502)"
           style="fill:#a6a6a6;fill-opacity:1">
          <path
             d="M 0,0 C 3.744,0 6.48,-1.902 7.789,-4.607 L 6.123,-5.619 c -1.338,2.795 -3.953,3.748 -6.242,3.748 -5.055,0 -7.818,-4.52 -7.818,-8.772 0,-4.668 3.417,-8.888 7.908,-8.888 2.377,0 5.172,1.189 6.509,3.922 L 8.205,-16.5 c -1.367,-3.152 -5.113,-4.906 -8.353,-4.906 -5.799,0 -9.872,5.531 -9.872,10.883 C -10.02,-5.439 -6.363,0 0,0"
             style="fill:#a6a6a6;fill-opacity:1;fill-rule:nonzero;stroke:none"
             id="path36" />
        </g>
        <g
           id="g38"
           transform="translate(279.1699,198.5674)"
           style="fill:#a6a6a6;fill-opacity:1">
          <path
             d="m 0,0 v -1.846 h -14.18 v 21.11 H -0.268 V 17.422 H -12.129 V 9.813 H -1.783 V 8.055 H -12.129 V 0 Z"
             style="fill:#a6a6a6;fill-opacity:1;fill-rule:nonzero;stroke:none"
             id="path40" />
        </g>
        <g
           id="g42"
           transform="translate(283.2148,196.7217)"
           style="fill:#a6a6a6;fill-opacity:1">
          <path
             d="M 0,0 V 21.109 H 2.053 V 1.846 H 14.27 V 0 Z"
             style="fill:#a6a6a6;fill-opacity:1;fill-rule:nonzero;stroke:none"
             id="path44" />
        </g>
        <g
           id="g46"
           transform="translate(304.4414,221.46)"
           style="fill:#a6a6a6;fill-opacity:1">
          <path
             d="M 0,0 2.914,2.525 H 4.4 L 7.344,0 6.184,-0.625 3.656,1.248 1.131,-0.625 Z m 10.496,-22.893 v -1.845 H -3.686 V -3.629 H 10.227 V -5.471 H -1.635 V -13.08 H 8.711 v -1.758 H -1.635 v -8.055 z"
             style="fill:#a6a6a6;fill-opacity:1;fill-rule:nonzero;stroke:none"
             id="path48" />
        </g>
        <g
           id="g50"
           transform="translate(321.0332,213.9678)"
           style="fill:#a6a6a6;fill-opacity:1">
          <path
             d="M 0,0 V -17.246 H -2.053 V 3.863 h 1.606 l 13.972,-17.57 V 3.836 h 2.051 v -21.082 h -1.783 z"
             style="fill:#a6a6a6;fill-opacity:1;fill-rule:nonzero;stroke:none"
             id="path52" />
        </g>
        <g
           id="g54"
           transform="translate(350.6152,217.9502)"
           style="fill:#a6a6a6;fill-opacity:1">
          <path
             d="M 0,0 C 3.744,0 6.48,-1.902 7.787,-4.607 L 6.123,-5.619 c -1.336,2.795 -3.953,3.748 -6.244,3.748 -5.053,0 -7.818,-4.52 -7.818,-8.772 0,-4.668 3.419,-8.888 7.908,-8.888 2.379,0 5.174,1.189 6.511,3.922 L 8.203,-16.5 c -1.365,-3.152 -5.113,-4.906 -8.351,-4.906 -5.799,0 -9.872,5.531 -9.872,10.883 C -10.02,-5.439 -6.365,0 0,0"
             style="fill:#a6a6a6;fill-opacity:1;fill-rule:nonzero;stroke:none"
             id="path56" />
        </g>
        <path
           d="m 362.447,217.804 h 2.053 v -21.082 h -2.053 z"
           style="fill:#a6a6a6;fill-opacity:1;fill-rule:nonzero;stroke:none"
           id="path58" />
        <g
           id="g60"
           transform="translate(377.3125,215.3936)"
           style="fill:#a6a6a6;fill-opacity:1">
          <path
             d="m 0,0 -4.34,-10.434 h 8.563 z m -9.691,-18.672 8.83,21.11 h 1.693 l 8.83,-21.11 H 7.434 l -2.737,6.602 h -9.484 l -2.705,-6.602 z"
             style="fill:#a6a6a6;fill-opacity:1;fill-rule:nonzero;stroke:none"
             id="path62" />
        </g>
        <g
           id="g64"
           transform="translate(410.9082,198.5674)"
           style="fill:#a6a6a6;fill-opacity:1">
          <path
             d="m 0,0 v -1.846 h -14.182 v 21.11 H -0.268 V 17.422 H -12.129 V 9.813 H -1.783 V 8.055 H -12.129 V 0 Z"
             style="fill:#a6a6a6;fill-opacity:1;fill-rule:nonzero;stroke:none"
             id="path66" />
        </g>
        <g
           id="g68"
           transform="translate(433.6523,196.7217)"
           style="fill:#a6a6a6;fill-opacity:1">
          <path
             d="M 0,0 V 17.336 L -7.699,3.928 H -8.92 l -7.73,13.408 V 0 h -2.049 v 21.109 h 2.109 L -8.322,6.66 -0.059,21.109 h 2.11 L 2.051,0 Z"
             style="fill:#a6a6a6;fill-opacity:1;fill-rule:nonzero;stroke:none"
             id="path70" />
        </g>
        <g
           id="g72"
           transform="translate(455.2061,215.3936)"
           style="fill:#a6a6a6;fill-opacity:1">
          <path
             d="m 0,0 -4.34,-10.434 h 8.563 z m -9.689,-18.672 8.832,21.11 h 1.691 l 8.832,-21.11 H 7.437 l -2.738,6.602 h -9.484 l -2.705,-6.602 z"
             style="fill:#a6a6a6;fill-opacity:1;fill-rule:nonzero;stroke:none"
             id="path74" />
        </g>
        <g
           id="g76"
           transform="translate(482.4424,207.1885)"
           style="fill:#a6a6a6;fill-opacity:1">
          <path
             d="M 0,0 V 10.643 H 2.08 V 0 c 0,-5.678 -2.406,-10.615 -8.887,-10.615 -6.718,0 -8.89,5.234 -8.89,10.615 v 10.643 h 2.052 V 0 c 0,-4.43 1.575,-8.742 6.809,-8.742 C -1.488,-8.742 0,-4.312 0,0"
             style="fill:#a6a6a6;fill-opacity:1;fill-rule:nonzero;stroke:none"
             id="path78" />
        </g>
        <g
           id="g80"
           transform="translate(504.5322,215.9893)"
           style="fill:#a6a6a6;fill-opacity:1">
          <path
             d="M 0,0 H -7.521 V -19.268 H -9.604 V 0 h -7.521 V 1.842 H 0 Z"
             style="fill:#a6a6a6;fill-opacity:1;fill-rule:nonzero;stroke:none"
             id="path82" />
        </g>
        <g
           id="g84"
           transform="translate(515.3584,198.4463)"
           style="fill:#a6a6a6;fill-opacity:1">
          <path
             d="m 0,0 c 4.781,0 7.814,4.49 7.814,8.832 0,4.578 -3.238,8.801 -7.814,8.801 -4.787,0 -7.822,-4.432 -7.822,-8.801 C -7.822,4.252 -4.641,0 0,0 m -9.902,8.832 c 0,5.619 4.281,10.703 9.929,10.703 5.883,0 9.869,-5.441 9.869,-10.732 C 9.896,3.184 5.645,-1.873 0,-1.873 c -5.891,0 -9.902,5.291 -9.902,10.705"
             style="fill:#a6a6a6;fill-opacity:1;fill-rule:nonzero;stroke:none"
             id="path86" />
        </g>
        <g
           id="g88"
           transform="translate(547.9678,196.7217)"
           style="fill:#a6a6a6;fill-opacity:1">
          <path
             d="M 0,0 V 17.336 L -7.699,3.928 h -1.217 l -7.732,13.408 V 0 h -2.051 v 21.109 h 2.111 L -8.32,6.66 -0.057,21.109 h 2.11 V 0 Z"
             style="fill:#a6a6a6;fill-opacity:1;fill-rule:nonzero;stroke:none"
             id="path90" />
        </g>
        <g
           id="g92"
           transform="translate(562.833,215.3936)"
           style="fill:#a6a6a6;fill-opacity:1">
          <path
             d="m 0,0 -4.338,-10.434 h 8.559 z m -9.689,-18.672 8.83,21.11 h 1.693 l 8.83,-21.11 h -2.23 l -2.735,6.602 h -9.484 l -2.705,-6.602 z"
             style="fill:#a6a6a6;fill-opacity:1;fill-rule:nonzero;stroke:none"
             id="path94" />
        </g>
        <g
           id="g96"
           transform="translate(581.8057,192.9795)"
           style="fill:#a6a6a6;fill-opacity:1">
          <path
             d="m 0,0 c 0.533,-0.271 1.574,-0.537 2.613,-0.537 1.1,0 1.698,0.299 1.698,1.039 0,0.803 -0.598,1.07 -1.489,1.07 -0.832,0 -1.873,-0.234 -2.375,-0.416 l 1.305,2.438 c -5.5,0.299 -9.336,5.65 -9.336,10.853 0,5.084 3.658,10.524 10.02,10.524 3.744,0 6.48,-1.903 7.789,-4.608 L 8.559,19.352 C 7.223,22.146 4.607,23.1 2.318,23.1 -2.738,23.1 -5.5,18.58 -5.5,14.328 c 0,-4.668 3.416,-8.889 7.906,-8.889 2.379,0 5.172,1.19 6.51,3.922 l 1.725,-0.89 C 9.363,5.527 6.004,3.801 2.912,3.594 L 2.08,2.227 c 0.356,0.15 0.832,0.179 1.129,0.179 1.367,0 2.258,-0.625 2.258,-1.814 0,-1.34 -1.069,-2.08 -3.031,-2.08 -1.129,0 -2.17,0.265 -2.944,0.562 z"
             style="fill:#a6a6a6;fill-opacity:1;fill-rule:nonzero;stroke:none"
             id="path98" />
        </g>
        <g
           id="g100"
           transform="translate(603.5361,215.3936)"
           style="fill:#a6a6a6;fill-opacity:1">
          <path
             d="m 0,0 -4.342,-10.434 h 8.565 z m -1.992,7.047 c -1.311,0 -1.487,-1.277 -1.487,-1.428 h -1.25 c 0,0.416 0.479,2.766 2.708,2.766 1.664,0 2.32,-1.248 3.806,-1.248 1.547,0 1.695,1.336 1.695,1.455 h 1.247 c 0,-0.387 -0.504,-2.735 -2.913,-2.735 -1.783,0 -2.556,1.19 -3.806,1.19 m -7.699,-25.719 8.83,21.11 h 1.693 l 8.83,-21.11 h -2.23 l -2.737,6.602 h -9.482 l -2.705,-6.602 z"
             style="fill:#a6a6a6;fill-opacity:1;fill-rule:nonzero;stroke:none"
             id="path102" />
        </g>
        <g
           id="g104"
           transform="translate(624.8252,198.4463)"
           style="fill:#a6a6a6;fill-opacity:1">
          <path
             d="m 0,0 c 4.781,0 7.816,4.49 7.816,8.832 0,4.578 -3.238,8.801 -7.816,8.801 -4.787,0 -7.82,-4.432 -7.82,-8.801 C -7.82,4.252 -4.637,0 0,0 m -9.9,8.832 c 0,5.619 4.279,10.703 9.927,10.703 5.889,0 9.869,-5.441 9.869,-10.732 0,-5.619 -4.25,-10.676 -9.896,-10.676 -5.889,0 -9.9,5.291 -9.9,10.705"
             style="fill:#a6a6a6;fill-opacity:1;fill-rule:nonzero;stroke:none"
             id="path106" />
        </g>
      </g>
    </g>
    <g
       id="g18"
       transform="translate(372.1602,295.0791)"
       style="fill:url(#linearGradient30)"
       inkscape:export-filename="coda_preferencial_negativa.png"
       inkscape:export-xdpi="300"
       inkscape:export-ydpi="300">
      <path
         d="m 0,0 c 0.271,0.15 0.504,0.32 0.504,0.631 0,0.299 -0.221,0.49 -0.481,0.623 l -30.16,16.533 c -3.047,-4.848 -4.802,-10.633 -4.802,-17.16 0,-6.26 1.605,-11.844 4.416,-16.559 z"
         style="fill:url(#linearGradient2);fill-opacity:1;fill-rule:nonzero;stroke:none"
         id="path20" />
    </g>
    <g
       id="g22"
       transform="translate(323.5391,320.9189)"
       style="fill:#a6a6a6;fill-opacity:1">
      <path
         d="m 228.71873,-25.212621 -19.77686,-53.935548 h 23.36426 l 6.89209,18.465821 h 42.34131 l 6.89209,-18.465821 h 23.36572 l -19.77685,53.935548 h -23.51807 l 5.70117,-15.508301 -27.6416,-0.0249 5.69238,15.533203 z"
         style="fill:#a6a6a6;fill-opacity:1"
         id="path26" />
      <path
         d="m 118.78952,-25.212621 v -53.91211 h 33.14356 c 33.29497,0 56.76123,22.038213 56.76123,53.909181 0,9.94e-4 0,0.0019 0,0.0029 h -22.98486 c 0,-9.93e-4 0,-0.0019 0,-0.0029 0,-20.13698 -10.94621,-34.41211 -34.88819,-34.41211 h -9.83496 v 34.415039 z"
         style="fill:#a6a6a6;fill-opacity:1"
         id="path21" />
      <path
         d="m 83.479465,-25.212621 c 0,-19.31998 -15.114388,-32.402344 -34.901368,-32.402344 -13.378987,0 -24.599476,6.00176 -30.48047,15.84375 L -0.17776379,-50.060766 C 8.4882275,-67.927748 26.469119,-80.050513 48.578097,-80.050513 c 31.316968,0 54.373533,24.294923 54.373533,54.837892 z"
         style="fill:#a6a6a6;fill-opacity:1"
         id="path18" />
      <path
         d="m -93.479524,-25.212621 h -22.668456 c 0.0482,-31.587184 24.426832,-54.837892 55.085449,-54.837892 20.617979,0 35.409253,9.126043 44.698243,23.603028 l -17.15625,11.812501 c -5.982994,-9.128991 -13.692007,-15.739747 -27.541993,-15.739747 -19.328712,0 -32.376227,15.220151 -32.416993,35.16211 z"
         style="fill:#a6a6a6;fill-opacity:1"
         id="path16" />
    </g>
    <g
       id="use1"
       transform="translate(323.5391,320.9189)"
       style="fill:#d9d9d9;fill-opacity:1">
      <path
         d="m 228.71873,-25.212621 h 23.53564 l 8.11231,22.1352549 8.13574,-22.1352549 h 23.51807 l -19.77393,53.928224 h -0.11279 -23.52979 -0.11133 z"
         style="fill:#d9d9d9;fill-opacity:1"
         id="path11" />
      <path
         d="M 118.78952,-25.212621 H 140.9863 V 9.1877709 h 9.83496 c 23.9408,0 34.88711,-14.2689844 34.88819,-34.4003919 h 22.98486 c -0.001,31.8653615 -23.6283,53.901857 -56.76123,53.901857 h -33.14356 z"
         style="fill:#d9d9d9;fill-opacity:1"
         id="path7" />
      <path
         d="m 83.479465,-25.212621 h 19.472165 c 0,30.5369699 -23.056565,54.840822 -54.373533,54.840822 -21.956978,0 -39.8466234,-11.967948 -48.57861469279,-29.62793032077 L 18.484346,-8.0534405 C 24.45534,1.4295501 35.47311,7.189724 48.578097,7.189724 c 19.78698,0 34.901368,-13.0783639 34.901368,-32.402345 z"
         style="fill:#d9d9d9;fill-opacity:1"
         id="path5" />
      <path
         d="m -61.062531,29.654568 c -30.688969,0 -55.089849,-23.143935 -55.089849,-54.774903 0,-0.03129 0.004,-0.06101 0.004,-0.09229 h 22.668456 c -6.4e-5,0.03123 -0.0044,0.06103 -0.0044,0.09229 0,19.9819796 13.062406,34.9423833 32.421387,34.9423833 12.275988,0 20.931361,-5.8277039 25.964356,-14.0126957 L -18.249542,7.7727318 C -27.856532,22.718717 -41.70855,29.654568 -61.062531,29.654568 Z"
         style="fill:#d9d9d9;fill-opacity:1"
         id="path3" />
    </g>
  </g>
</svg>
