<?xml version="1.0" encoding="UTF-8" standalone="no"?>
<!-- Created with Inkscape (http://www.inkscape.org/) -->

<svg
   version="1.1"
   id="svg2"
   width="137.50586"
   height="146.23828"
   viewBox="0 0 137.50586 146.23828"
   sodipodi:docname="so_circulo_coda_positiva_2cores.svg"
   xmlns:inkscape="http://www.inkscape.org/namespaces/inkscape"
   xmlns:sodipodi="http://sodipodi.sourceforge.net/DTD/sodipodi-0.dtd"
   xmlns:xlink="http://www.w3.org/1999/xlink"
   xmlns="http://www.w3.org/2000/svg"
   xmlns:svg="http://www.w3.org/2000/svg">
  <defs
     id="defs6">
    <linearGradient
       id="linearGradient6"
       inkscape:collect="always">
      <stop
         style="stop-color:#ffb233;stop-opacity:1;"
         offset="0"
         id="stop6" />
      <stop
         style="stop-color:#ff4d00;stop-opacity:1;"
         offset="1"
         id="stop7" />
    </linearGradient>
    <clipPath
       clipPathUnits="userSpaceOnUse"
       id="clipPath16">
      <path
         d="M 0,595.28 H 841.89 V 0 H 0 Z"
         id="path14" />
    </clipPath>
    <linearGradient
       inkscape:collect="always"
       xlink:href="#linearGradient6"
       id="linearGradient7"
       x1="-34.938999"
       y1="0.92750001"
       x2="0.50400001"
       y2="0.92750001"
       gradientUnits="userSpaceOnUse" />
    <linearGradient
       inkscape:collect="always"
       xlink:href="#linearGradient6"
       id="linearGradient2"
       gradientUnits="userSpaceOnUse"
       x1="-34.938999"
       y1="0.92750001"
       x2="0.50400001"
       y2="0.92750001" />
  </defs>
  <sodipodi:namedview
     id="namedview4"
     pagecolor="#ffffff"
     bordercolor="#000000"
     borderopacity="0.25"
     inkscape:showpageshadow="2"
     inkscape:pageopacity="0.0"
     inkscape:pagecheckerboard="0"
     inkscape:deskcolor="#d1d1d1" />
  <g
     id="g8"
     inkscape:groupmode="layer"
     inkscape:label="coda_duas_cores_positiva"
     transform="matrix(1.3333333,0,0,-1.3333333,-431.14845,467.39613)">
    <g
       id="g10"
       inkscape:export-filename="so_circulo_coda_positiva_2cores.png"
       inkscape:export-xdpi="96"
       inkscape:export-ydpi="96">
      <g
         id="g12"
         clip-path="url(#clipPath16)">
        <g
           id="g18"
           transform="translate(372.1602,295.0791)"
           style="fill:url(#linearGradient7)"
           inkscape:export-filename="so_circulo_coda_positiva_preferencial.svg"
           inkscape:export-xdpi="96"
           inkscape:export-ydpi="96">
          <path
             d="m 0,0 c 0.271,0.15 0.504,0.32 0.504,0.631 0,0.299 -0.221,0.49 -0.481,0.623 l -30.16,16.533 c -3.047,-4.848 -4.802,-10.633 -4.802,-17.16 0,-6.26 1.605,-11.844 4.416,-16.559 z"
             style="fill:url(#linearGradient2);fill-opacity:1;fill-rule:nonzero;stroke:none"
             id="path20" />
        </g>
        <g
           id="g22"
           transform="translate(323.5391,320.9189)">
          <path
             d="M 102.95163,-25.205296 H 83.479465 c 0,-0.0025 0,-0.0049 0,-0.0073 0,-19.31998 -15.114388,-32.402344 -34.901368,-32.402344 -13.378987,0 -24.599476,6.00176 -30.48047,15.84375 L -0.17776379,-50.060766 C 8.4882275,-67.927748 26.469119,-80.050513 48.578097,-80.050513 c 31.316968,0 54.373533,24.294923 54.373533,54.837892 0,0.0025 0,0.0049 0,0.0073 z"
             style="fill:#262626;fill-opacity:1"
             id="path6" />
          <path
             d="M 48.578097,29.628201 C 26.621119,29.628201 8.7314736,17.660253 -5.1769279e-4,2.7067923e-4 L 18.484346,-8.0534405 C 24.45534,1.4295501 35.47311,7.189724 48.578097,7.189724 c 19.784456,0 34.897512,-13.0750986 34.901368,-32.39502 h 19.472165 c -0.004,30.5335093 -23.059084,54.833497 -54.373533,54.833497 z"
             style="fill:#4d4d4d;fill-opacity:1;stroke-width:0.99975"
             id="path4" />
        </g>
      </g>
    </g>
  </g>
</svg>
